<?xml version="1.0" standalone="no"?>
<!DOCTYPE svg PUBLIC "-//W3C//DTD SVG 20010904//EN"
 "http://www.w3.org/TR/2001/REC-SVG-20010904/DTD/svg10.dtd">
<svg version="1.0" xmlns="http://www.w3.org/2000/svg"
 width="451.000000pt" height="175.000000pt" viewBox="0 0 451.000000 175.000000"
 preserveAspectRatio="xMidYMid meet">

<g transform="translate(0.000000,175.000000) scale(0.100000,-0.100000)"
fill="#000000" stroke="none">
<path style="fill:#f20b0c; stroke:none;" d="M184 1728 c-41 -19 -45 -47 -44 -332 2 -299 0 -312 -57 -347 -70 -43
-67 -29 -73 -484 -3 -225 -2 -430 2 -455 6 -32 17 -53 39 -74 30 -26 36 -28
105 -24 65 3 77 7 101 31 l28 28 2 377 c1 207 2 387 2 400 1 13 12 34 26 47
l24 25 305 0 c299 0 306 0 325 -21 19 -21 20 -39 23 -423 3 -365 5 -404 21
-429 31 -47 100 -33 120 24 3 9 7 214 8 455 2 348 0 444 -11 464 -7 14 -36 46
-64 71 l-51 46 0 293 0 292 -28 24 -28 24 -377 -1 c-238 0 -385 -4 -398 -11z
m666 -138 c19 -19 20 -33 20 -258 0 -199 -3 -241 -16 -260 -15 -22 -18 -22
-271 -22 -225 0 -259 2 -275 17 -16 15 -18 36 -18 261 0 214 2 248 17 264 15
17 37 18 270 18 240 0 254 -1 273 -20z"/>
<path style="fill:#f20b0c; stroke:none;" d="M1668 1741 c-431 -6 -469 -7 -485 -24 -17 -17 -18 -66 -23 -790 -3
-425 -2 -794 1 -821 4 -37 13 -55 33 -73 l27 -23 499 0 499 0 28 24 c28 24 28
26 31 158 4 153 -5 199 -44 217 -22 10 -31 9 -51 -4 -33 -22 -43 -54 -43 -141
0 -66 -3 -78 -25 -99 l-24 -25 -304 0 c-285 0 -306 1 -328 19 l-24 19 -5 410
c-4 320 -8 412 -18 425 -8 9 -34 28 -58 42 -25 15 -46 35 -48 48 -12 58 -17
396 -6 435 19 71 13 71 400 72 190 1 355 1 368 1 13 -1 34 -12 47 -26 22 -21
25 -33 25 -99 0 -111 22 -144 91 -134 40 5 49 41 49 196 0 138 -1 144 -25 167
-13 14 -33 25 -43 25 -11 0 -32 1 -48 3 -16 2 -239 1 -496 -2z"/>
<path style="fill:#f20b0c; stroke:none;" d="M2394 1742 c-43 -7 -73 -25 -84 -51 -7 -19 -10 -134 -8 -374 3 -345
3 -347 26 -369 l23 -23 365 -2 c200 0 376 -4 389 -7 51 -13 53 -26 57 -381 3
-356 3 -361 -49 -384 -15 -7 -130 -11 -317 -11 -360 0 -338 -9 -347 135 -5 79
-10 100 -27 117 -26 27 -68 26 -95 -1 -20 -19 -22 -34 -25 -156 -4 -147 7
-192 53 -213 18 -9 724 -18 983 -13 23 1 43 10 63 30 l29 29 0 462 0 462 -30
29 -30 30 -435 -2 -436 -3 -27 27 -27 27 1 223 c1 228 5 256 42 276 14 7 597
17 730 12 46 -2 62 -33 62 -125 0 -100 19 -136 74 -136 61 0 71 23 74 179 4
150 -4 186 -44 201 -23 9 -939 20 -990 12z"/>
<path style="fill:#f20b0c; stroke:none;" d="M3494 1728 c-12 -5 -27 -21 -33 -34 -16 -35 -16 -1578 0 -1623 21
-61 21 -61 527 -61 450 0 460 0 486 21 34 27 35 72 2 94 -20 14 -70 16 -360
14 -295 -1 -340 1 -361 15 -14 9 -26 24 -26 34 -1 9 -1 191 1 404 l2 388 -38
35 c-22 19 -51 46 -66 59 l-28 25 0 276 c0 293 -5 331 -48 354 -24 13 -30 13
-58 -1z"/>
</g>
</svg>
