<?xml version="1.0" standalone="yes"?>
<svg xmlns="http://www.w3.org/2000/svg" width="521" height="207">
<path style="fill:#fffcfc; stroke:none;" d="M0 0L0 207L521 207L521 0L0 0z"/>
<path style="fill:#f20b0c; stroke:none;" d="M60.0586 27.0278C55.5599 29.4917 56.002 34.5956 56 39L56 72C56 77.7389 57.6719 86.8425 54.142 91.7755C51.3162 95.7243 45.7361 95.768 44.314 101.015C42.2611 108.591 43 117.237 43 125L43 166C43 174.465 39.144 194.365 49.0154 198.258C54.867 200.565 66.4862 200.112 69.6821 193.956C71.7888 189.898 71 184.414 71 180L71 132C71 126.368 69.2552 117.121 72.0278 112.059C75.0365 106.565 82.7769 108 88 108L120 108C124.994 108 131.127 107.046 135.981 108.318C143.069 110.175 141 120.465 141 126L141 179C141 184.724 140.135 202.056 150.956 198.098C157.623 195.66 156 186.547 156 181L156 131C156 122.006 158.51 108.457 154.852 100.108C152.274 94.2244 144.716 94.5412 144.059 87C142.914 73.8753 144 60.1779 144 47C144 41.5372 145.326 33.88 141.991 29.1481C138.364 24.0019 128.489 26 123 26L79 26C73.6068 26 64.9137 24.3687 60.0586 27.0278M167.483 27.0278C162.404 30.277 164 38.9084 164 44L164 90L164 170C164 176.879 161.063 192.598 167.228 197.258C171.401 200.411 179.082 199 184 199L227 199L260 199C264.331 199 270.194 199.938 273.566 196.566C276.116 194.016 275.982 190.34 275.999 187C276.036 179.961 277.043 171.932 275.772 165.001C275.205 161.911 273.3 158.94 269.985 158.377C265.805 157.666 262.911 161.281 262.228 165.001C261.145 170.904 264.371 180.026 258.772 184.258C254.779 187.275 247.699 186 243 186L211 186C206.488 186 200.305 187.073 196.044 185.397C192.038 183.821 191.137 179.873 191.015 176C190.744 167.351 191 158.654 191 150L191 117C191 112.003 191.872 106.066 190.721 101.184C189.248 94.932 181.047 95.6151 178.742 89.956C177.09 85.8994 178 80.2961 178 76C178 66.4592 175.955 54.2519 178.318 45.0046C180.302 37.2401 189.906 39 196 39L240 39C245.046 39 253.361 37.4352 257.867 40.0278C265.574 44.4625 259.535 55.5639 263.028 61.9414C265.273 66.0411 271.065 67.1092 274.258 63.4275C276.236 61.1455 275.984 57.8148 275.999 55C276.034 48.34 276.111 41.6629 275.995 35.0039C275.941 31.8706 275.724 28.7549 272.656 27.0895C266.738 23.8771 255.592 26 249 26L192 26L175 26C172.579 26.005 169.627 25.6565 167.483 27.0278M285.189 26.9884C279.345 30.0829 281 38.5505 281 44L281 88C281 93.1791 279.446 101.375 283.573 105.347C287.784 109.401 295.68 108 301 108L345 108C350.754 108 361.466 105.89 365.397 111.148C367.932 114.539 367 120.026 367 124L367 153C367 161.266 368.819 172.009 366.566 179.985C364.772 186.34 358.37 185.998 353 186L315 186C310.356 186 303.093 187.346 299.148 184.397C292.605 179.505 298.112 168.574 294.543 162.059C292.266 157.902 287.129 156.967 283.724 160.434C280.874 163.334 281.008 167.224 281 171C280.984 178.824 277.816 194.629 287.015 198.258C293.655 200.876 303.931 199 311 199L364 199C371.103 199 383.569 201.38 389.891 197.821C396.365 194.177 394 182.203 394 176L394 119C394 113.093 396.124 101.992 391.566 97.4336C387.273 93.1401 377.54 95 372 95L320 95C314.237 95 300.698 97.5264 297.179 91.7716C293.525 85.7956 296 72.8427 296 66C296 59.4724 294.698 51.3454 296.318 45.0046C298.235 37.501 307.064 39 313 39L358 39C362.988 39 371.424 37.4063 375.852 40.0278C382.596 44.021 376.867 55.5759 379.858 61.5316C382.023 65.8429 388.044 67.1312 391.486 63.5664C393.927 61.0386 393.956 57.2821 393.996 54C394.078 47.3875 394.374 40.6036 393.956 34.0039C393.761 30.9245 392.9 28.2293 389.891 26.858C383.58 23.9815 372.845 26 366 26L311 26C303.921 26 291.539 23.6263 285.189 26.9884M403.109 27.0285C397.486 30.1513 399 38.6601 399 44L399 94L399 171C399 178.318 396.198 192.45 403.109 197.258C407.518 200.326 414.909 199 420 199L460 199L489 199C493.009 199 498.357 199.839 501.772 197.258C505.144 194.708 505.787 189.514 501.852 187.179C499.034 185.508 495.133 186.001 492 186L447 186C442.005 186 433.415 187.629 429.228 184.397C423.769 180.182 427 169.014 427 163L427 123C427 116.533 427.852 109.394 426.852 103.001C425.786 96.1866 419.128 96.4184 415.603 91.7755C413.531 89.0449 414.001 85.2204 414 82C413.993 66.5622 415.429 50.3572 413.895 35C413.364 29.6799 409.063 23.7216 403.109 27.0285z"/>
<path style="fill:#fffcfc; stroke:none;" d="M73.3179 40.0278C70.7291 41.7553 71.0195 45.2748 71.0008 48C70.9572 54.3327 71 60.6672 71 67L71 85C71.0049 87.3737 70.6017 90.4943 72.0278 92.5664C74.5143 96.1792 81.2527 95 85 95L114 95C117.661 95 123.379 96.0144 126.566 93.821C129.085 92.0874 128.958 88.7174 128.996 86C129.085 79.6693 129 73.3314 129 67L129 50C128.994 47.1546 129.369 43.6584 127.397 41.3179C124.602 38.0013 118.84 39 115 39L85 39C81.6106 39 76.2871 38.0464 73.3179 40.0278z"/>
</svg>
